<?xml version="1.0" standalone="no"?><!DOCTYPE svg PUBLIC "-//W3C//DTD SVG 1.1//EN" "http://www.w3.org/Graphics/SVG/1.1/DTD/svg11.dtd"><svg t="1642559159428" class="icon" viewBox="0 0 1024 1024" version="1.1" xmlns="http://www.w3.org/2000/svg" p-id="14834" xmlns:xlink="http://www.w3.org/1999/xlink" width="128" height="128"><defs><style type="text/css"></style></defs><path d="M512 1008c-273.5 0-496-222.5-496-496S238.5 16 512 16s496 222.5 496 496-222.5 496-496 496z" fill="#09881e" p-id="14835" data-spm-anchor-id="a313x.7781069.0.i8" class="selected"></path><path d="M379.9 272c-12 21.1-21 69.1-21 69.1h149.9c9.5 0 10 36.6 10 36.6h-85.2c-0.7 21.3-2.6 78.7-4.7 123.4h89.7s11.5 14.5 11.5 39.1H426.7l-0.1 1.4c-1.4 19.2-5.9 41.2-12.1 63.5l22.5-17 66.7 75.8c8.6 31-3.1 59.2-3.1 59.2l-89.8-105v-0.1c-8.4 27.2-18.9 53.8-31.3 79.5-21.2 42.9-51.8 51.4-84 54.2-32.3 2.8-21.9-5-21.9-5 63.8-52.1 73.2-82.4 90.9-115.6 11.2-20.9 19.2-60.4 23.8-90.9H279.1s4.5-29.3 18-39.1h95.4c0.6-14.4-1.2-96.5-1.9-123.4h-46.4c-8.6 42.2-38.5 53.2-45.2 56.4-6.6 3.2-22.2 6.7-19.8 0 2.4-6.7 25.3-43.4 40.6-103.9 15.4-60.6 60.1-58.2 60.1-58.2zM752 333.4V697h-82.2l-65.2 43.7-15.5-43.7h-37.6V333.4H752zM713.2 374H591.4v284h13.2l12.6 35.8 53.3-35.8h42.7V374z" fill="#FFFFFF" p-id="14836"></path></svg>